<?xml version="1.0" standalone="no"?>
<!DOCTYPE svg PUBLIC "-//W3C//DTD SVG 20010904//EN"
 "http://www.w3.org/TR/2001/REC-SVG-20010904/DTD/svg10.dtd">
<svg version="1.0" xmlns="http://www.w3.org/2000/svg"
 width="512.000000pt" height="512.000000pt" viewBox="0 0 512.000000 512.000000"
 preserveAspectRatio="xMidYMid meet">
<metadata>
Created by potrace 1.14, written by Peter Selinger 2001-2017
</metadata>
<g transform="translate(0.000000,512.000000) scale(0.100000,-0.100000)"
fill="#000000" stroke="none">
<path d="M2198 4568 c-18 -6 -28 -17 -28 -29 0 -16 20 -29 83 -59 150 -69 199
-142 201 -300 1 -85 -8 -198 -19 -255 -3 -11 -7 -51 -10 -90 -3 -38 -7 -81 -9
-95 -6 -33 -26 -148 -31 -179 -5 -28 -20 -40 -55 -42 -14 -1 -36 -3 -50 -5
-14 -1 -52 -5 -85 -8 -61 -6 -130 -14 -175 -22 -73 -12 -279 -19 -555 -19
l-310 0 -47 28 c-26 15 -78 57 -115 93 -38 35 -78 71 -90 79 -20 14 -23 13
-33 -4 -41 -78 30 -231 174 -375 178 -178 264 -208 341 -121 21 24 127 70 180
78 17 3 48 10 70 16 65 17 338 62 465 76 30 3 82 10 115 15 140 22 147 22 142
3 -3 -10 -8 -34 -11 -53 -3 -19 -8 -46 -11 -60 -3 -14 -7 -36 -10 -50 -2 -14
-14 -61 -25 -105 -12 -44 -23 -87 -25 -95 -2 -8 -9 -31 -15 -50 -6 -19 -13
-47 -16 -61 -3 -15 -14 -51 -25 -80 -11 -30 -22 -62 -24 -72 -4 -17 -46 -129
-65 -172 -67 -153 -89 -200 -129 -278 -69 -134 -78 -149 -169 -292 -69 -107
-67 -105 -146 -209 -164 -216 -364 -426 -551 -581 -33 -28 -65 -54 -71 -60 -7
-5 -26 -21 -44 -35 -18 -14 -37 -30 -44 -36 -18 -17 -184 -135 -280 -199 -49
-33 -102 -72 -117 -88 -64 -64 -15 -95 79 -50 65 30 269 143 322 177 19 13 80
52 135 88 276 179 571 449 801 733 85 105 244 341 244 362 0 6 4 13 9 15 18 6
220 422 221 455 1 4 9 26 20 48 11 22 19 45 20 51 0 6 9 33 19 60 11 27 31 90
46 139 15 50 33 110 40 135 8 25 17 61 20 80 3 19 8 42 10 50 2 8 6 27 9 43 3
15 7 35 10 45 6 21 15 64 22 117 9 64 15 67 174 80 41 3 86 8 100 10 14 2 69
7 123 10 54 4 106 8 115 10 9 1 51 6 92 10 41 4 82 9 90 10 8 2 65 6 125 10
61 4 118 9 127 10 9 2 49 7 90 10 40 4 94 10 120 14 54 9 61 1 53 -59 -6 -53
-15 -121 -20 -160 -2 -19 -7 -57 -9 -85 -9 -90 -17 -149 -27 -200 -5 -27 -11
-70 -14 -95 -4 -41 -13 -101 -20 -140 -52 -271 -106 -500 -148 -630 -6 -19
-11 -38 -12 -42 0 -3 -3 -10 -7 -14 -5 -4 -8 -14 -8 -23 0 -25 -92 -241 -144
-341 -103 -196 -180 -292 -259 -325 -34 -14 -109 -10 -146 8 -38 19 -75 41
-81 48 -3 3 -23 16 -45 29 -22 13 -44 28 -50 32 -29 24 -158 108 -165 108 -5
0 -10 4 -12 8 -1 4 -52 42 -113 83 -171 118 -205 131 -205 82 0 -34 8 -43 210
-253 226 -235 232 -242 261 -286 15 -21 32 -64 39 -94 38 -178 76 -215 195
-187 22 5 45 10 50 11 13 2 133 62 160 79 172 109 311 266 405 456 82 167 183
468 249 746 17 72 36 146 41 165 17 67 66 318 75 385 2 17 11 64 20 105 9 41
18 95 21 120 5 51 8 71 30 192 10 52 24 98 36 113 10 14 49 41 86 62 83 45 76
38 78 73 2 30 -23 62 -89 113 -15 12 -36 29 -46 37 -10 8 -51 38 -90 65 -40
28 -98 69 -131 92 l-59 43 -63 -61 c-34 -34 -83 -71 -108 -84 -53 -26 -242
-57 -435 -70 -38 -3 -85 -7 -105 -9 -19 -3 -69 -8 -110 -12 -41 -3 -83 -8 -93
-10 -25 -4 -184 -17 -242 -19 -65 -2 -74 2 -70 28 2 12 6 45 10 72 7 60 14 92
25 125 5 14 11 43 14 65 3 22 18 94 35 160 27 106 34 124 66 153 20 19 45 32
60 32 32 0 75 41 70 66 -2 11 -4 22 -4 26 -2 16 -91 98 -141 130 -127 81 -242
125 -400 152 -105 18 -143 19 -182 4z"/>
</g>
</svg>
